<?xml version="1.0" encoding="iso-8859-1"?>
<!-- Generator: Adobe Illustrator 19.0.0, SVG Export Plug-In . SVG Version: 6.00 Build 0)  -->
<svg xmlns="http://www.w3.org/2000/svg" xmlns:xlink="http://www.w3.org/1999/xlink" version="1.1" id="Layer_1" x="0px" y="0px" viewBox="0 0 512.001 512.001" style="enable-background:new 0 0 512.001 512.001;" xml:space="preserve">
<g>
	<g>
		<path d="M236.963,42.795h-75.64c-4.61,0-8.348,3.737-8.348,8.348s3.738,8.348,8.348,8.348h75.64c4.61,0,8.348-3.737,8.348-8.348    S241.573,42.795,236.963,42.795z" fill="#3f345f"/>
	</g>
</g>
<g>
	<g>
		<path d="M311.301,42.795h-10.138c-4.61,0-8.348,3.737-8.348,8.348s3.738,8.348,8.348,8.348h10.138c4.61,0,8.348-3.737,8.348-8.348    S315.912,42.795,311.301,42.795z" fill="#3f345f"/>
	</g>
</g>
<g>
	<g>
		<path d="M223.072,454.738h-47.859c-4.61,0-8.348,3.737-8.348,8.348s3.738,8.348,8.348,8.348h47.859    c4.61,0,8.348-3.737,8.348-8.348S227.682,454.738,223.072,454.738z" fill="#3f345f"/>
	</g>
</g>
<g>
	<g>
		<path d="M429.472,265.599c-3.26-3.259-8.546-3.259-11.805,0l-70.594,70.595c-3.26,3.261-3.26,8.546,0,11.806    c1.63,1.629,3.767,2.444,5.903,2.444c2.136,0,4.273-0.815,5.903-2.444l70.594-70.595    C432.733,274.145,432.733,268.86,429.472,265.599z" fill="#3f345f"/>
	</g>
</g>
<g>
	<g>
		<path d="M429.472,313.773c-3.259-3.258-8.545-3.258-11.805,0l-70.594,70.594c-3.26,3.261-3.26,8.546,0,11.806    c1.63,1.629,3.767,2.444,5.903,2.444c2.136,0,4.273-0.815,5.903-2.444l70.594-70.594    C432.732,322.318,432.732,317.033,429.472,313.773z" fill="#3f345f"/>
	</g>
</g>
<g>
	<g>
		<path d="M492.566,377.088c4.61,0,8.348-3.737,8.348-8.348V205.874c0-25.779-20.974-46.754-46.754-46.754h-66.961V32.937    C387.197,14.775,372.421,0,354.261,0H44.025C25.863,0,11.088,14.775,11.088,32.937v287.509c0,4.611,3.738,8.348,8.348,8.348    c4.61,0,8.348-3.737,8.348-8.348V94.369h342.718v64.751h-43.654c-25.781,0-46.754,20.974-46.754,46.754v205.591H27.783v-40.757    c0-4.611-3.738-8.348-8.348-8.348c-4.61,0-8.348,3.737-8.348,8.348v108.356c0,18.162,14.776,32.938,32.938,32.938h282.097v-0.019    c0.243,0.003,0.482,0.019,0.725,0.019h127.311c25.781,0,46.754-20.974,46.754-46.754v-51.829c0-4.611-3.738-8.348-8.348-8.348    c-4.61,0-8.348,3.737-8.348,8.348v24.981H296.79V228.535h187.428V368.74C484.218,373.351,487.955,377.088,492.566,377.088z     M44.025,495.304c-8.956,0-16.242-7.286-16.242-16.242V428.16h252.31v37.086c0,11.438,4.135,21.924,10.98,30.058H44.025z     M296.791,455.094h187.427v10.152c0,16.574-13.485,30.058-30.058,30.058H326.849c-16.574,0-30.058-13.484-30.058-30.058V455.094z     M27.783,77.673V32.937c0-8.956,7.286-16.242,16.242-16.242H354.26c8.956,0,16.242,7.286,16.242,16.242v44.736H27.783z     M484.217,211.84H296.79v-5.966c0-16.574,13.485-30.058,30.058-30.058h127.311c16.574,0,30.058,13.484,30.058,30.058V211.84z" fill="#3f345f"/>
	</g>
</g>
<g>
	<g>
		<path d="M422.164,188.167h-63.322c-4.61,0-8.348,3.737-8.348,8.348s3.738,8.348,8.348,8.348h63.322    c4.61,0,8.348-3.737,8.348-8.348S426.775,188.167,422.164,188.167z" fill="#3f345f"/>
	</g>
</g>
<g>
	<g>
		<path d="M401.812,467.771h-22.617c-4.61,0-8.348,3.737-8.348,8.348s3.738,8.348,8.348,8.348h22.617    c4.61,0,8.348-3.737,8.348-8.348S406.422,467.771,401.812,467.771z" fill="#3f345f"/>
	</g>
</g>
<g>
	<g>
		<path d="M240.34,181.352c-3.26-3.259-8.546-3.259-11.805,0l-70.594,70.594c-3.26,3.261-3.26,8.546,0,11.806    c1.63,1.63,3.766,2.444,5.903,2.444c2.136,0,4.273-0.815,5.903-2.444l70.594-70.594C243.6,189.897,243.6,184.612,240.34,181.352z" fill="#3f345f"/>
	</g>
</g>
<g>
	<g>
		<path d="M240.34,229.526c-3.26-3.259-8.546-3.259-11.805,0l-70.594,70.594c-3.26,3.26-3.26,8.545,0,11.806    c1.63,1.63,3.767,2.444,5.903,2.444s4.273-0.815,5.903-2.444l70.594-70.594C243.6,238.071,243.6,232.786,240.34,229.526z" fill="#3f345f"/>
	</g>
</g>
<g>
</g>
<g>
</g>
<g>
</g>
<g>
</g>
<g>
</g>
<g>
</g>
<g>
</g>
<g>
</g>
<g>
</g>
<g>
</g>
<g>
</g>
<g>
</g>
<g>
</g>
<g>
</g>
<g>
</g>
</svg>
