<?xml version="1.0" encoding="iso-8859-1"?>
<!-- Generator: Adobe Illustrator 19.0.0, SVG Export Plug-In . SVG Version: 6.00 Build 0)  -->
<svg xmlns="http://www.w3.org/2000/svg" xmlns:xlink="http://www.w3.org/1999/xlink" version="1.1" id="Layer_1" x="0px" y="0px" viewBox="0 0 512 512" style="enable-background:new 0 0 512 512;" xml:space="preserve">
<g>
	<g>
		<path d="M228.201,146.713c-3.26-3.259-8.546-3.259-11.805,0l-58.161,58.161c-3.261,3.26-3.261,8.545,0,11.806    c1.63,1.63,3.767,2.444,5.903,2.444c2.136,0,4.273-0.815,5.903-2.444l58.161-58.161    C231.461,155.258,231.461,149.973,228.201,146.713z" fill="#673AB7"/>
	</g>
</g>
<g>
	<g>
		<path d="M178.284,146.713c-3.259-3.258-8.545-3.26-11.805,0l-58.161,58.161c-3.26,3.261-3.26,8.546,0,11.806    c1.63,1.628,3.767,2.444,5.903,2.444c2.136,0,4.273-0.815,5.903-2.444l58.161-58.161    C181.545,155.258,181.545,149.973,178.284,146.713z" fill="#673AB7"/>
	</g>
</g>
<g>
	<g>
		<path d="M71.88,290.365H63.97c-4.61,0-8.348,3.737-8.348,8.348c0,4.611,3.738,8.348,8.348,8.348h7.911    c4.61,0,8.348-3.737,8.348-8.348C80.228,294.101,76.491,290.365,71.88,290.365z" fill="#673AB7"/>
	</g>
</g>
<g>
	<g>
		<path d="M218.955,56.025h-7.91c-4.61,0-8.348,3.737-8.348,8.348c0,4.611,3.738,8.348,8.348,8.348h7.91    c4.61,0,8.348-3.737,8.348-8.348C227.302,59.762,223.565,56.025,218.955,56.025z" fill="#673AB7"/>
	</g>
</g>
<g>
	<g>
		<path d="M443.922,273.3H219.219c-4.61,0-8.348,3.737-8.348,8.348v128.413c0,4.61,3.738,8.348,8.348,8.348h224.702    c4.611,0,8.348-3.737,8.348-8.348V281.648C452.27,277.037,448.533,273.3,443.922,273.3z M435.574,401.713H227.567V289.996h208.006    V401.713z" fill="#673AB7"/>
	</g>
</g>
<g>
	<g>
		<path d="M509.445,440.205c-2.489-3.4-6.494-5.431-10.713-5.431h-12.225v-175.94c0-10.613-8.645-19.248-19.27-19.248h-29.326V53.5    c0-11.571-9.414-20.986-20.986-20.986H20.986C9.414,32.514,0,41.928,0,53.5v255.162c0,11.571,9.414,20.986,20.986,20.986h108.492    v57.502c0,17.768-13.27,32.825-30.865,35.026c-7.287,0.909-12.782,7.178-12.782,14.583c0,8.113,6.6,14.714,14.714,14.714h51.071    c0.051,0.191,0.086,0.386,0.146,0.577l2.852,8.971c3.496,11.045,13.642,18.466,25.245,18.466h170.199    c4.611,0,8.348-3.737,8.348-8.348s-3.737-8.348-8.348-8.348H179.854c-4.29,0-8.039-2.736-9.33-6.818l-1.43-4.499h15.496v-0.001    h0.371c0.008,0,0.014,0.001,0.021,0.001h293.177c0.008,0,0.014-0.001,0.021-0.001h15.867l-1.434,4.51    c-1.289,4.072-5.037,6.807-9.327,6.807H399.06c-4.611,0-8.348,3.737-8.348,8.348s3.737,8.348,8.348,8.348h84.225    c11.605,0,21.749-7.421,25.242-18.456l2.856-8.986C512.657,448.026,511.932,443.602,509.445,440.205z M176.635,434.774H164.41    c-0.006,0-0.012,0.001-0.018,0.001h-49.315c18.445-8.109,31.097-26.577,31.097-47.626v-57.496h30.461V434.774z M176.635,312.952    H20.986c-2.365,0-4.29-1.924-4.29-4.29V53.5c0-2.365,1.924-4.29,4.29-4.29h395.94c2.365,0,4.29,1.924,4.29,4.29v186.086h-14.991    V89.304c0-4.611-3.737-8.348-8.348-8.348H40.035c-4.61,0-8.348,3.737-8.348,8.348v184.498c0,4.611,3.738,8.348,8.348,8.348h136.6    V312.952z M176.634,258.834v6.619H48.382V97.652H389.53v141.934h-0.001H195.904C185.279,239.586,176.634,248.221,176.634,258.834z     M469.811,434.774H193.33v-175.94c0-1.408,1.155-2.552,2.575-2.552h271.332c1.42,0,2.575,1.144,2.575,2.552V434.774z" fill="#673AB7"/>
	</g>
</g>
<g>
	<g>
		<path d="M361.887,307.24c-3.261-3.259-8.546-3.259-11.806,0l-67.055,67.055c-3.26,3.261-3.26,8.546,0,11.806    c1.631,1.63,3.768,2.444,5.904,2.444s4.273-0.815,5.904-2.444l67.055-67.055C365.147,315.786,365.147,310.501,361.887,307.24z" fill="#673AB7"/>
	</g>
</g>
<g>
	<g>
		<path d="M377.412,333.814c-3.261-3.259-8.546-3.259-11.807,0l-40.481,40.481c-3.26,3.261-3.26,8.546,0,11.806    c1.631,1.63,3.768,2.444,5.904,2.444c2.136,0,4.273-0.815,5.904-2.444l40.481-40.481    C380.672,342.359,380.672,337.074,377.412,333.814z" fill="#673AB7"/>
	</g>
</g>
<g>
</g>
<g>
</g>
<g>
</g>
<g>
</g>
<g>
</g>
<g>
</g>
<g>
</g>
<g>
</g>
<g>
</g>
<g>
</g>
<g>
</g>
<g>
</g>
<g>
</g>
<g>
</g>
<g>
</g>
</svg>
